<svg width="24" height="25" viewBox="0 0 24 25" fill="none" xmlns="http://www.w3.org/2000/svg">
<path d="M12.0142 2.5874C6.49136 2.5874 2.01416 7.0644 2.01416 12.5874C2.01416 18.1104 6.49136 22.5874 12.0142 22.5874C17.5372 22.5874 22.0142 18.1104 22.0142 12.5874C22.0142 7.0644 17.5372 2.5874 12.0142 2.5874ZM12.0142 4.5874C16.4322 4.5874 20.0142 8.1694 20.0142 12.5874C20.0142 16.6534 16.9412 19.8904 13.0142 20.3994V15.5874H15.0142V12.5874H13.0142V11.5874C13.0142 11.0174 13.4952 10.5864 14.0142 10.5874C14.3102 10.5874 15.0142 10.5874 15.0142 10.5874V7.5874H13.0142C11.3152 7.6064 10.0252 8.9534 10.0142 10.5874V12.5874H8.01416V15.5874H10.0142V20.1814C6.58726 19.2774 4.01416 16.2984 4.01416 12.5874C4.01416 8.1694 7.59586 4.5874 12.0142 4.5874Z" fill="white" fill-opacity="0.8"/>
</svg>
