<svg width="24" height="24" viewBox="0 0 24 24" fill="none" xmlns="http://www.w3.org/2000/svg">
<path d="M12.0142 1.99896C6.49136 1.99896 2.01416 6.47596 2.01416 11.999C2.01416 17.522 6.49136 21.999 12.0142 21.999C17.5372 21.999 22.0142 17.522 22.0142 11.999C22.0142 6.47596 17.5372 1.99896 12.0142 1.99896ZM12.0142 3.99896C16.4322 3.99896 20.0142 7.58096 20.0142 11.999C20.0142 16.065 16.9412 19.302 13.0142 19.811V14.999H15.0142V11.999H13.0142V10.999C13.0142 10.429 13.4952 9.99796 14.0142 9.99896C14.3102 9.99896 15.0142 9.99896 15.0142 9.99896V6.99896H13.0142C11.3152 7.01796 10.0252 8.36496 10.0142 9.99896V11.999H8.01416V14.999H10.0142V19.593C6.58726 18.689 4.01416 15.71 4.01416 11.999C4.01416 7.58096 7.59586 3.99896 12.0142 3.99896Z" fill="white" fill-opacity="0.8"/>
</svg>
