<svg width="24" height="25" viewBox="0 0 24 25" fill="none" xmlns="http://www.w3.org/2000/svg">
<path d="M21.9514 10.9313V10.7409V10.6075C21.6844 9.20252 21.008 7.90283 20.0037 6.86472C18.922 5.7473 17.588 4.89281 16.1083 4.3695C14.7931 3.87322 13.3984 3.60881 11.9889 3.58856C10.1309 3.57818 8.29857 4.01308 6.65214 4.85521C5.2105 5.5148 4.00038 6.57638 3.17387 7.90656C2.34737 9.23674 1.94135 10.7761 2.00684 12.3313C2.15339 13.8689 2.76731 15.3284 3.76952 16.5218C4.77121 17.7019 6.05592 18.6212 7.50913 19.1979C8.40893 19.5364 9.3424 19.7822 10.2944 19.9312H10.4015C10.6742 19.9312 10.7423 20.0455 10.7618 20.0741C10.7813 20.1426 10.7813 20.2151 10.7618 20.2836C10.7618 20.3408 10.7618 20.3884 10.7618 20.436C10.6212 20.8563 10.5779 21.302 10.6352 21.7407C10.6617 21.9748 10.7759 22.1909 10.9557 22.3474C11.1356 22.504 11.3683 22.5898 11.6091 22.5884C12.1734 22.5206 12.7119 22.3178 13.177 21.9979H13.2257C14.1995 21.4455 15.115 20.8074 15.8064 20.3217C17.4751 19.2526 18.9913 17.9716 20.3154 16.5122C21.5925 14.936 22.1806 12.9299 21.9514 10.9313ZM8.22979 13.9123H6.50606C6.44431 13.9136 6.38293 13.9026 6.32562 13.8801C6.2683 13.8576 6.21624 13.824 6.17256 13.7813C6.12889 13.7386 6.09451 13.6876 6.07149 13.6316C6.04846 13.5755 6.03728 13.5155 6.03861 13.4551V9.9123C6.03728 9.85191 6.04846 9.79189 6.07149 9.73584C6.09451 9.67979 6.12889 9.62888 6.17256 9.58616C6.21624 9.54345 6.2683 9.50983 6.32562 9.48732C6.38293 9.4648 6.44431 9.45387 6.50606 9.45516C6.56826 9.4539 6.6301 9.46479 6.68794 9.48719C6.74578 9.5096 6.79847 9.54307 6.84291 9.58564C6.88736 9.62822 6.92266 9.67904 6.94676 9.73514C6.97086 9.79123 6.98326 9.85146 6.98325 9.9123V12.9885H8.22979C8.35635 12.9885 8.47772 13.0376 8.56721 13.1251C8.6567 13.2127 8.70698 13.3314 8.70698 13.4551C8.70699 13.516 8.69459 13.5762 8.67049 13.6323C8.64639 13.6884 8.61108 13.7392 8.56664 13.7818C8.5222 13.8244 8.46951 13.8578 8.41167 13.8802C8.35382 13.9026 8.29199 13.9135 8.22979 13.9123ZM10.0314 13.4456C10.0314 13.5719 9.98012 13.693 9.88881 13.7823C9.79749 13.8716 9.67364 13.9218 9.5445 13.9218C9.41535 13.9218 9.2915 13.8716 9.20018 13.7823C9.10887 13.693 9.05757 13.5719 9.05757 13.4456V9.90278C9.05757 9.77649 9.10887 9.65537 9.20018 9.56607C9.2915 9.47676 9.41535 9.42659 9.5445 9.42659C9.67364 9.42659 9.79749 9.47676 9.88881 9.56607C9.98012 9.65537 10.0314 9.77649 10.0314 9.90278V13.4456ZM14.2969 13.4456C14.2956 13.5433 14.2629 13.6382 14.2035 13.7168C14.1441 13.7954 14.061 13.8538 13.9658 13.8837H13.8197C13.7454 13.8845 13.6719 13.8676 13.6057 13.8344C13.5396 13.8012 13.4826 13.7528 13.4399 13.6932L11.7454 11.4266V13.4456C11.7429 13.5677 11.6915 13.684 11.6023 13.7694C11.513 13.8549 11.3931 13.9028 11.2682 13.9027C11.2044 13.9066 11.1405 13.8977 11.0804 13.8765C11.0202 13.8553 10.9652 13.8222 10.9186 13.7794C10.8721 13.7365 10.835 13.6848 10.8097 13.6274C10.7844 13.57 10.7714 13.5081 10.7716 13.4456V10.0075C10.7716 9.90968 10.8025 9.8142 10.86 9.73411C10.9175 9.65402 10.9988 9.5932 11.0929 9.55993C11.1879 9.53139 11.2897 9.53257 11.3839 9.56331C11.4782 9.59404 11.5603 9.65279 11.6188 9.73135L13.3231 12.017V9.90278C13.3231 9.77649 13.3744 9.65537 13.4657 9.56607C13.557 9.47676 13.6808 9.42659 13.81 9.42659C13.9391 9.42659 14.063 9.47676 14.1543 9.56607C14.2456 9.65537 14.2969 9.77649 14.2969 9.90278V13.4456ZM17.7346 13.8265H15.3974C15.3356 13.8278 15.2742 13.8169 15.2169 13.7944C15.1596 13.7719 15.1076 13.7383 15.0639 13.6955C15.0202 13.6528 14.9858 13.6019 14.9628 13.5459C14.9398 13.4898 14.9286 13.4298 14.9299 13.3694V9.82659C14.9299 9.70535 14.9792 9.58907 15.0668 9.50334C15.1545 9.41761 15.2734 9.36945 15.3974 9.36945H17.6567C17.7859 9.36945 17.9097 9.41962 18.001 9.50892C18.0924 9.59822 18.1437 9.71934 18.1437 9.84564C18.1437 9.97193 18.0924 10.093 18.001 10.1824C17.9097 10.2717 17.7859 10.3218 17.6567 10.3218H15.8648V11.1694H17.3256C17.4496 11.1694 17.5685 11.2176 17.6562 11.3033C17.7438 11.3891 17.7931 11.5053 17.7931 11.6266C17.7931 11.7487 17.7442 11.866 17.6568 11.9532C17.5694 12.0405 17.4505 12.0907 17.3256 12.0932H15.8648V12.9408H17.7346C17.8638 12.9408 17.9876 12.991 18.0789 13.0803C18.1703 13.1696 18.2216 13.2907 18.2216 13.417C18.2216 13.5433 18.1703 13.6644 18.0789 13.7537C17.9876 13.843 17.8638 13.8932 17.7346 13.8932V13.8265Z" fill="white" fill-opacity="0.8"/>
</svg>
