<svg width="24" height="25" viewBox="0 0 24 25" fill="none" xmlns="http://www.w3.org/2000/svg">
<path d="M13.5374 12.5885C13.5374 16.3164 10.5069 19.3384 6.76884 19.3384C3.03073 19.3384 0 16.3157 0 12.5885C0 8.86131 3.0305 5.83838 6.76884 5.83838C10.5072 5.83838 13.5374 8.86062 13.5374 12.5885ZM20.9628 12.5885C20.9628 16.0975 19.4476 18.9432 17.5784 18.9432C15.7092 18.9432 14.194 16.0975 14.194 12.5885C14.194 9.07951 15.709 6.23378 17.5782 6.23378C19.4474 6.23378 20.9628 9.0786 20.9628 12.5885ZM24 12.5885C24 15.7317 23.4672 18.2813 22.8097 18.2813C22.1522 18.2813 21.6196 15.7324 21.6196 12.5885C21.6196 9.44462 22.1524 6.89567 22.8097 6.89567C23.4669 6.89567 24 9.44439 24 12.5885Z" fill="white" fill-opacity="0.8"/>
</svg>
