<svg width="24" height="25" viewBox="0 0 24 25" fill="none" xmlns="http://www.w3.org/2000/svg">
<path d="M4.98292 7.78542C6.19132 7.78542 7.17092 6.80582 7.17092 5.59742C7.17092 4.38902 6.19132 3.40942 4.98292 3.40942C3.77452 3.40942 2.79492 4.38902 2.79492 5.59742C2.79492 6.80582 3.77452 7.78542 4.98292 7.78542Z" fill="white" fill-opacity="0.8"/>
<path d="M9.23722 9.44343V21.5824H13.0062V15.5794C13.0062 13.9954 13.3042 12.4614 15.2682 12.4614C17.2052 12.4614 17.2292 14.2724 17.2292 15.6794V21.5834H21.0002V14.9264C21.0002 11.6564 20.2962 9.14343 16.4742 9.14343C14.6392 9.14343 13.4092 10.1504 12.9062 11.1034H12.8552V9.44343H9.23722V9.44343ZM3.09521 9.44343H6.87021V21.5824H3.09521V9.44343Z" fill="white" fill-opacity="0.8"/>
</svg>
