<svg width="48" height="49" viewBox="0 0 48 49" fill="none" xmlns="http://www.w3.org/2000/svg">
<path fill-rule="evenodd" clip-rule="evenodd" d="M15.7645 35.6573C15.5341 35.6607 15.3042 35.637 15.0793 35.5866C14.7194 35.4874 14.384 35.3136 14.0944 35.0764C13.704 34.769 13.3884 34.3757 13.1718 33.9265C13.006 33.5575 12.9312 33.1536 12.9538 32.7492C12.959 32.6168 12.9773 32.4854 13.0083 32.3567C13.0167 32.322 13.0161 32.2858 13.0065 32.2514C12.997 32.217 12.9788 32.1857 12.9538 32.1605C12.6168 31.6722 12.3075 31.1651 12.0273 30.6417C12.0095 30.6164 12 30.5863 12 30.5553C12 30.5244 12.0095 30.4942 12.0273 30.469C12.1849 30.2142 12.3592 29.9704 12.549 29.739C12.7164 29.5349 12.8915 29.3466 13.0745 29.1503L13.1329 29.0915C13.203 29.0247 13.2497 29.0012 13.3236 29.0915C13.6896 29.6409 14.1022 30.1589 14.4915 30.6613C14.8263 31.0734 15.1805 31.4737 15.5387 31.8701C15.8968 32.2664 16.2316 32.6118 16.5937 32.9611C17.0725 33.4281 17.5669 33.8755 18.0885 34.2915C18.5089 34.629 18.9333 34.9508 19.3771 35.2491C19.4316 35.2844 19.416 35.3041 19.3771 35.3394C18.9521 35.8054 18.4738 36.2191 17.9523 36.5717C17.9376 36.5825 17.9199 36.5884 17.9017 36.5884C17.8835 36.5884 17.8657 36.5825 17.8511 36.5717C17.3678 36.2962 16.9012 35.9922 16.4535 35.6612C16.4036 35.6107 16.341 35.575 16.2724 35.5577C16.2038 35.5404 16.1318 35.5423 16.0642 35.5631C15.9928 35.5808 15.9197 35.5913 15.8462 35.5945C15.8501 35.6573 15.8034 35.6376 15.7645 35.6573Z" fill="white" fill-opacity="0.8"/>
<path fill-rule="evenodd" clip-rule="evenodd" d="M35.7894 21.2972C35.3918 19.0384 34.2623 16.9763 32.5778 15.4339C30.6502 13.5914 28.0906 12.5719 25.4344 12.5886C24.8958 12.5855 24.3579 12.6288 23.8266 12.7181C22.6878 12.8985 21.5867 13.2685 20.5683 13.813C20.0017 14.114 19.4659 14.4702 18.9683 14.8766C18.6667 15.1212 18.3794 15.3833 18.108 15.6615C17.9017 15.8774 17.6837 16.0814 17.489 16.3091C17.2944 16.5367 17.1698 16.6819 17.018 16.8742C16.7198 17.258 16.4479 17.6618 16.2044 18.083C15.8746 18.6482 15.5983 19.2434 15.3791 19.8608C15.2444 20.2359 15.1313 20.6185 15.0404 21.0068C14.947 21.4228 14.873 21.8427 14.8146 22.2626C14.7757 22.5177 14.7718 22.7807 14.7562 23.0476C14.7508 23.094 14.7417 23.14 14.729 23.1849V23.9698C14.7523 24.0248 14.729 24.0876 14.729 24.1464C14.7341 24.4659 14.7614 24.7845 14.8107 25.1001C14.8533 25.4371 14.9157 25.7713 14.9976 26.1009C14.9976 26.1676 15.0521 26.2304 14.9976 26.301C14.8574 26.4698 14.7134 26.6307 14.5771 26.8034C14.3697 27.0682 14.1773 27.3446 14.001 27.6315C13.9868 27.65 13.9791 27.6728 13.9791 27.6962C13.9791 27.7197 13.9868 27.7424 14.001 27.761C14.1567 28.0161 14.3046 28.279 14.4642 28.5459C14.9129 29.2568 15.4057 29.9384 15.9396 30.5867C16.255 30.9791 16.582 31.3323 16.9129 31.7012C17.0725 31.8739 17.2438 32.0388 17.415 32.1997C17.5863 32.3606 17.8043 32.5725 18.0029 32.753C18.2754 33.0003 18.5557 33.2318 18.8398 33.4673C19.2058 33.7656 19.5795 34.0481 19.9688 34.315C20.3581 34.5819 20.7473 34.837 21.1366 35.0724C21.1692 35.0989 21.2097 35.1133 21.2515 35.1133C21.2933 35.1133 21.3338 35.0989 21.3663 35.0724C21.7865 34.7966 22.1778 34.4784 22.5342 34.1227C22.5653 34.0952 22.5926 34.0599 22.6354 34.0795C22.7082 34.1015 22.7823 34.1185 22.8573 34.1305C23.2301 34.2243 23.6085 34.2938 23.9901 34.3386C24.2704 34.3739 24.5585 34.3778 24.8466 34.3974C24.9361 34.3974 25.0256 34.3974 25.1113 34.3974C25.1902 34.3885 25.2698 34.3885 25.3487 34.3974C25.4383 34.3739 25.5278 34.3974 25.6134 34.3974C25.8548 34.3974 26.0923 34.3739 26.3297 34.3464C26.9085 34.2805 27.4812 34.169 28.0426 34.0128C28.9383 33.76 29.796 33.3864 30.5924 32.9022C31.5176 32.3426 32.3525 31.6438 33.0683 30.83C34.2474 29.5778 35.1102 28.0579 35.5838 26.3987C36.0575 24.7395 36.128 22.9897 35.7894 21.2972ZM31.6902 29.9313C30.5431 31.1282 29.0734 31.9605 27.4626 32.3252C26.7105 32.5124 25.9359 32.5917 25.1619 32.5607C22.9965 32.5008 20.9311 31.629 19.3693 30.1157C17.9773 28.8187 17.0402 27.1014 16.6988 25.2218C16.4131 23.8569 16.4452 22.4439 16.7923 21.0936C17.1395 19.7433 17.7924 18.4925 18.6997 17.4394C19.9361 15.9678 21.6334 14.9655 23.5113 14.598C24.191 14.4479 24.887 14.3859 25.5823 14.4135C27.5128 14.4679 29.3703 15.1694 30.861 16.4072C32.417 17.6627 33.5129 19.4056 33.9753 21.36C34.1487 22.0859 34.2311 22.8308 34.2206 23.5774C34.2371 25.9504 33.3284 28.235 31.6902 29.9391V29.9313Z" fill="white" fill-opacity="0.8"/>
<path fill-rule="evenodd" clip-rule="evenodd" d="M25.2397 16.1873C26.9229 16.1871 28.5557 16.7657 29.8687 17.8274C31.1816 18.8892 32.0961 20.3706 32.461 22.0271C32.893 23.8549 32.632 25.7795 31.7292 27.4234C31.6373 27.6213 31.5237 27.8082 31.3905 27.9807C31.1989 28.2026 30.9529 28.3699 30.677 28.4659C30.4011 28.5619 30.1051 28.5831 29.8185 28.5275C29.5319 28.4718 29.2649 28.3413 29.0441 28.1489C28.8233 27.9565 28.6565 27.709 28.5604 27.4312C28.3405 26.7804 27.8766 26.2422 27.2679 25.932C26.8349 25.6984 26.3472 25.5871 25.8566 25.6099C25.3659 25.6327 24.8905 25.7887 24.4806 26.0615C23.9359 26.3853 23.3249 26.5791 22.6945 26.6281C22.064 26.6772 21.4308 26.5802 20.8432 26.3447C20.2557 26.1091 19.7293 25.7411 19.3045 25.269C18.8797 24.7968 18.5676 24.2329 18.3922 23.6205C18.2219 23.0638 18.1652 22.4781 18.2254 21.8987C18.2856 21.3194 18.4615 20.7583 18.7425 20.2493C19.2491 19.2386 19.9796 18.3589 20.8774 17.6784C21.7752 16.9979 22.8163 16.5347 23.9201 16.3247C24.0758 16.2894 24.2354 16.2697 24.395 16.2501C24.6748 16.2093 24.957 16.1884 25.2397 16.1873ZM28.2567 30.406C28.4994 30.3549 28.7231 30.2367 28.9029 30.0646C28.9988 29.9607 29.067 29.8339 29.1011 29.6962C29.1352 29.5585 29.1341 29.4143 29.0979 29.2771C29.0618 29.1399 28.9917 29.0142 28.8943 28.9117C28.7969 28.8092 28.6753 28.7333 28.5409 28.691C28.3462 28.6404 28.1695 28.5357 28.0309 28.3888C27.8768 28.2192 27.76 28.0186 27.6884 27.8001C27.572 27.5122 27.3626 27.2722 27.0942 27.1191C26.8257 26.966 26.5139 26.9086 26.2091 26.9564C26.0006 26.9946 25.8036 27.0802 25.6329 27.2067C25.4622 27.3333 25.3224 27.4974 25.2241 27.6865C25.1257 27.8757 25.0715 28.085 25.0654 28.2985C25.0594 28.512 25.1017 28.7241 25.1891 28.9186C25.3842 29.3991 25.7186 29.8089 26.1485 30.0946C26.5785 30.3803 27.084 30.5285 27.5988 30.5199C27.8238 30.5184 28.0471 30.4813 28.2606 30.41L28.2567 30.406Z" fill="white" fill-opacity="0.8"/>
</svg>
