<svg width="24" height="25" viewBox="0 0 24 25" fill="none" xmlns="http://www.w3.org/2000/svg">
<path d="M7.99854 3.5791C5.23754 3.5791 2.99854 5.8181 2.99854 8.5791V16.5791C2.99854 19.3401 5.23754 21.5791 7.99854 21.5791H15.9985C18.7595 21.5791 20.9985 19.3401 20.9985 16.5791V8.5791C20.9985 5.8181 18.7595 3.5791 15.9985 3.5791H7.99854ZM7.99854 5.5791H15.9985C17.6555 5.5791 18.9985 6.9221 18.9985 8.5791V16.5791C18.9985 18.2361 17.6555 19.5791 15.9985 19.5791H7.99854C6.34154 19.5791 4.99854 18.2361 4.99854 16.5791V8.5791C4.99854 6.9221 6.34154 5.5791 7.99854 5.5791ZM15.9985 7.5791C15.4465 7.5791 14.9985 8.0271 14.9985 8.5791C14.9985 9.1311 15.4465 9.5791 15.9985 9.5791C16.5505 9.5791 16.9985 9.1311 16.9985 8.5791C16.9985 8.0271 16.5505 7.5791 15.9985 7.5791ZM11.9985 8.5791C9.78954 8.5791 7.99854 10.3701 7.99854 12.5791C7.99854 14.7881 9.78954 16.5791 11.9985 16.5791C14.2075 16.5791 15.9985 14.7881 15.9985 12.5791C15.9985 10.3701 14.2075 8.5791 11.9985 8.5791ZM11.9985 10.5791C13.1035 10.5791 13.9985 11.4741 13.9985 12.5791C13.9985 13.6841 13.1035 14.5791 11.9985 14.5791C10.8935 14.5791 9.99854 13.6841 9.99854 12.5791C9.99854 11.4741 10.8935 10.5791 11.9985 10.5791Z" fill="white" fill-opacity="0.8"/>
</svg>
