<svg width="24" height="25" viewBox="0 0 24 25" fill="none" xmlns="http://www.w3.org/2000/svg">
<path d="M16.0009 3.51831C13.2679 3.51831 11.0009 5.7363 11.0009 8.4563C11.0009 8.8093 11.0179 8.91233 11.0179 9.14233C8.65994 9.02633 7.14892 8.24134 4.95593 6.06134C4.75993 5.86734 4.50694 5.77231 4.25094 5.76831C4.20494 5.76731 4.05094 5.76831 4.00094 5.76831C3.44894 5.76831 3.00094 6.21631 3.00094 6.76831C3.00094 7.19731 3.00094 9.03531 3.00094 9.51831C3.00094 10.7263 3.40292 11.8653 4.02392 12.7153C4.02392 12.7233 4.00094 12.6123 4.00094 13.5183C4.00094 15.0683 4.63094 16.2283 5.67794 16.9183C5.33294 17.4563 4.39992 17.8443 3.65792 18.1743C3.21392 18.3713 2.87093 18.5203 2.68893 18.5813C2.46693 18.6573 2.28092 18.8313 2.15792 19.0493C2.14992 19.0623 2.13294 19.0673 2.12594 19.0813C2.11894 19.0943 2.10194 19.0973 2.09494 19.1123C1.99094 19.3433 1.99493 19.5773 2.06393 19.7993C2.06693 19.8103 2.05993 19.8203 2.06393 19.8313C2.14093 20.0533 2.31392 20.2383 2.53292 20.3623C2.54492 20.3693 2.55093 20.3863 2.56393 20.3933C2.57793 20.4003 2.58094 20.4183 2.59494 20.4243C4.19593 21.1453 6.06194 21.5183 8.00094 21.5183C14.6989 21.5183 20.2519 16.6803 21.0039 9.77832L21.9079 7.9563C22.2399 7.2913 21.7449 6.51831 21.0009 6.51831C21.0229 6.51831 20.9949 6.5193 20.9079 6.4873C20.7129 6.4143 20.4939 6.25531 20.2829 6.01831C20.1909 5.91531 20.0879 5.81032 20.0009 5.67432C19.0549 4.31232 17.6279 3.51831 16.0009 3.51831ZM16.0009 5.51831C16.9559 5.51831 17.7859 5.96431 18.3449 6.76831C18.4659 6.96031 18.6179 7.1783 18.7829 7.3623C19.0579 7.6713 19.9829 8.01129 19.9829 8.01129C19.9829 8.01129 19.4299 9.04933 19.0109 9.53333C18.4819 15.1663 13.7919 19.5183 8.00094 19.5183C7.30994 19.5183 6.35094 19.5043 5.45394 19.3393C7.31994 18.7813 9.00094 16.7943 9.00094 16.5183C7.01294 16.5183 6.27393 15.1163 6.08193 14.2063C6.66693 14.4283 8.22494 14.5923 9.01894 14.0143C6.08194 12.8233 5.00094 11.3243 5.00094 9.51831C5.00094 9.39231 5.00094 9.06132 5.00094 8.79932C7.17794 10.6183 8.95193 11.1603 12.0049 11.1383C12.3739 11.1363 13.0039 10.8663 13.0009 10.1433C12.9999 9.86531 13.0009 9.7303 13.0009 8.4563C13.0009 6.8513 14.3619 5.51831 16.0009 5.51831ZM17.0009 7.51831C16.4489 7.51831 16.0009 7.96631 16.0009 8.51831C16.0009 9.07031 16.4489 9.51831 17.0009 9.51831C17.5539 9.51831 18.0009 9.07031 18.0009 8.51831C18.0009 7.96631 17.5539 7.51831 17.0009 7.51831Z" fill="white" fill-opacity="0.8"/>
</svg>
