<svg width="24" height="24" viewBox="0 0 24 24" fill="none" xmlns="http://www.w3.org/2000/svg">
<path d="M16.0009 2.92987C13.2679 2.92987 11.0009 5.14786 11.0009 7.86786C11.0009 8.22086 11.0179 8.32389 11.0179 8.55389C8.65994 8.43789 7.14892 7.6529 4.95593 5.4729C4.75993 5.2789 4.50694 5.18387 4.25094 5.17987C4.20494 5.17887 4.05094 5.17987 4.00094 5.17987C3.44894 5.17987 3.00094 5.62787 3.00094 6.17987C3.00094 6.60887 3.00094 8.44687 3.00094 8.92987C3.00094 10.1379 3.40292 11.2769 4.02392 12.1269C4.02392 12.1349 4.00094 12.0239 4.00094 12.9299C4.00094 14.4799 4.63094 15.6399 5.67794 16.3299C5.33294 16.8679 4.39992 17.2559 3.65792 17.5859C3.21392 17.7829 2.87093 17.9319 2.68893 17.9929C2.46693 18.0689 2.28092 18.2429 2.15792 18.4609C2.14992 18.4739 2.13294 18.4789 2.12594 18.4929C2.11894 18.5059 2.10194 18.5089 2.09494 18.5239C1.99094 18.7549 1.99493 18.9889 2.06393 19.2109C2.06693 19.2219 2.05993 19.2319 2.06393 19.2429C2.14093 19.4649 2.31392 19.6499 2.53292 19.7739C2.54492 19.7809 2.55093 19.7979 2.56393 19.8049C2.57793 19.8119 2.58094 19.8299 2.59494 19.8359C4.19593 20.5569 6.06194 20.9299 8.00094 20.9299C14.6989 20.9299 20.2519 16.0919 21.0039 9.18988L21.9079 7.36786C22.2399 6.70286 21.7449 5.92987 21.0009 5.92987C21.0229 5.92987 20.9949 5.93086 20.9079 5.89886C20.7129 5.82586 20.4939 5.66687 20.2829 5.42987C20.1909 5.32687 20.0879 5.22188 20.0009 5.08588C19.0549 3.72388 17.6279 2.92987 16.0009 2.92987ZM16.0009 4.92987C16.9559 4.92987 17.7859 5.37587 18.3449 6.17987C18.4659 6.37187 18.6179 6.58986 18.7829 6.77386C19.0579 7.08286 19.9829 7.42285 19.9829 7.42285C19.9829 7.42285 19.4299 8.46089 19.0109 8.94489C18.4819 14.5779 13.7919 18.9299 8.00094 18.9299C7.30994 18.9299 6.35094 18.9159 5.45394 18.7509C7.31994 18.1929 9.00094 16.2059 9.00094 15.9299C7.01294 15.9299 6.27393 14.5279 6.08193 13.6179C6.66693 13.8399 8.22494 14.0038 9.01894 13.4258C6.08194 12.2348 5.00094 10.7359 5.00094 8.92987C5.00094 8.80387 5.00094 8.47288 5.00094 8.21088C7.17794 10.0299 8.95193 10.5719 12.0049 10.5499C12.3739 10.5479 13.0039 10.2779 13.0009 9.55487C12.9999 9.27687 13.0009 9.14186 13.0009 7.86786C13.0009 6.26286 14.3619 4.92987 16.0009 4.92987ZM17.0009 6.92987C16.4489 6.92987 16.0009 7.37787 16.0009 7.92987C16.0009 8.48187 16.4489 8.92987 17.0009 8.92987C17.5539 8.92987 18.0009 8.48187 18.0009 7.92987C18.0009 7.37787 17.5539 6.92987 17.0009 6.92987Z" fill="white" fill-opacity="0.8"/>
</svg>
