<svg width="124" height="49" viewBox="0 0 124 49" fill="none" xmlns="http://www.w3.org/2000/svg">
<path fill-rule="evenodd" clip-rule="evenodd" d="M36.357 34.5371C35.1928 34.5371 34.0238 34.5371 32.8548 34.5371C32.5564 34.5371 32.4782 34.4584 32.4782 34.1668C32.4782 27.8939 32.4782 21.621 32.4782 15.348C32.4782 15.0657 32.5369 14.9685 32.8499 14.9732C34.3173 14.9732 35.7553 14.9732 37.2081 14.9732C37.4771 14.9732 37.5798 15.0333 37.6532 15.3203C38.8124 19.8653 39.9961 24.4011 41.17 28.9461C41.1918 29.0698 41.2437 29.1871 41.3216 29.2886C41.5384 28.7074 41.702 28.1097 41.8108 27.502C42.5542 24.7945 43.1999 22.0591 43.9532 19.3469C44.3298 18.0001 44.6379 16.644 45.0097 15.3064C45.0733 15.0703 45.1662 14.9917 45.3912 14.9917C46.8879 14.9917 48.3945 14.9917 49.8961 14.9917C50.3363 14.9917 50.2434 15.2601 50.2434 15.4962C50.2434 20.6922 50.2434 25.8867 50.2434 31.0797C50.2434 32.1118 50.2434 33.144 50.2434 34.1807C50.2434 34.4723 50.1651 34.5556 49.8618 34.551C48.6977 34.551 47.5287 34.551 46.3597 34.551C46.3036 34.4027 46.2885 34.2434 46.3157 34.0881C46.3157 30.3855 46.3157 26.6828 46.3157 23.0126C46.3157 22.883 46.433 22.6932 46.208 22.6099C45.7776 24.0447 45.3374 25.4748 44.9119 26.9142C44.1814 29.3827 43.4559 31.8635 42.7352 34.3566C42.6814 34.5232 42.6178 34.5695 42.4564 34.5695C41.7276 34.5695 40.989 34.5695 40.2749 34.5695C39.8689 34.5695 39.9081 34.2131 39.8445 34.0095C39.4091 32.621 39.0081 31.1954 38.5972 29.7838C38.2108 28.4555 37.839 27.1225 37.4526 25.7988C37.1542 24.7667 36.8363 23.7346 36.5282 22.7025C36.2738 22.795 36.4108 22.9987 36.4108 23.1653C36.4108 26.8124 36.4108 30.4595 36.4108 34.1113C36.4296 34.2552 36.4112 34.4014 36.357 34.5371Z" fill="white" fill-opacity="0.8"/>
<path fill-rule="evenodd" clip-rule="evenodd" d="M104.674 20.5179C104.674 19.3423 104.375 18.2685 103.152 17.7409C101.573 17.0837 99.7286 17.8427 99.7286 19.7172C99.6678 19.8788 99.6678 20.0554 99.7286 20.2171C99.6846 21.027 100.218 21.5176 100.829 21.9434C101.833 22.567 102.914 23.0721 104.048 23.4476C105.515 24.0308 106.889 24.7621 107.809 26.0811C108.312 26.8398 108.608 27.7051 108.67 28.5989C108.703 28.9454 108.703 29.2939 108.67 29.6403C108.401 32.4451 106.376 33.9724 103.803 34.3705C103.446 34.426 103.084 34.4491 102.722 34.4862C102.424 34.515 102.125 34.515 101.827 34.4862C100.418 34.4526 99.0458 34.0488 97.865 33.3198C97.2641 32.9539 96.7491 32.4751 96.3519 31.913C95.9548 31.3509 95.684 30.7175 95.5563 30.0522C95.4879 29.7097 95.4781 29.3672 95.434 29.0248C95.392 28.7671 95.392 28.5049 95.434 28.2472C95.9067 28.1663 96.3888 28.1461 96.8672 28.187C97.5031 28.187 98.1389 28.187 98.7797 28.187C99.1661 28.187 99.2688 28.2611 99.2688 28.6499C99.2477 29.0679 99.3147 29.4857 99.4659 29.879C99.617 30.2724 99.8493 30.6333 100.149 30.9409C100.917 31.6768 103.152 31.973 104.131 30.8622C104.434 30.502 104.635 30.0746 104.716 29.6203C104.796 29.166 104.753 28.6998 104.591 28.2657C104.336 27.3632 103.573 26.905 102.791 26.4838C101.891 26.021 100.888 25.7664 99.9683 25.3406C99.0084 24.9263 98.1105 24.3941 97.2976 23.7577C96.5249 23.1183 96.007 22.2477 95.8302 21.2908C95.6094 20.256 95.6649 19.1854 95.9917 18.176C96.3398 17.1751 97.0276 16.3112 97.9482 15.7183C100.159 14.191 104.018 14.2326 106.175 15.7183C106.865 16.165 107.436 16.7577 107.842 17.4494C108.248 18.1411 108.478 18.9129 108.513 19.7033C108.513 19.9486 108.567 20.1661 108.592 20.4346C108.552 20.5781 108.435 20.5919 108.308 20.5919H104.835C104.803 20.6011 104.769 20.5986 104.739 20.5848C104.709 20.5711 104.686 20.5472 104.674 20.5179Z" fill="white" fill-opacity="0.8"/>
<path fill-rule="evenodd" clip-rule="evenodd" d="M82.0172 14.9732C82.6629 14.9732 83.3134 14.9732 83.9737 14.9732C86.9574 14.9732 89.9411 14.9732 92.9297 14.9732C93.321 14.9732 93.4188 15.0658 93.4188 15.436C93.3944 16.1534 93.4188 16.8847 93.4188 17.6067C93.4188 17.8983 93.3357 17.9723 93.0373 17.9677C90.8362 17.9677 88.6351 17.9677 86.4438 17.9677C86.0623 17.9677 85.9547 18.051 85.9547 18.4305C85.9547 19.819 85.9547 21.2075 85.9547 22.596C85.9547 22.883 86.0379 22.9663 86.3411 22.9663C88.1509 22.9663 89.9607 22.9663 91.7705 22.9663C92.1178 22.9663 92.2156 23.0496 92.2058 23.3829C92.1764 24.0864 92.1764 24.7991 92.2058 25.5073C92.2058 25.8683 92.1324 25.9701 91.7167 25.9701C89.946 25.9469 88.1558 25.9701 86.3851 25.9701C86.0476 25.9701 85.94 26.0349 85.94 26.3774C85.94 28.0019 85.94 29.6172 85.94 31.251C85.94 31.4176 85.8765 31.6074 86.1895 31.6074C88.5699 31.6074 90.952 31.5981 93.3357 31.5796C93.365 31.5796 93.4091 31.6074 93.4091 31.6259C93.451 32.6116 93.4396 33.5988 93.3748 34.5834H81.9732C81.9151 34.4453 81.8999 34.2944 81.9292 34.1483C81.9292 27.9186 81.9292 21.6858 81.9292 15.4499C81.9341 15.2694 81.8313 15.075 82.0172 14.9732Z" fill="white" fill-opacity="0.8"/>
<path fill-rule="evenodd" clip-rule="evenodd" d="M9.82661 28.1917C10.932 28.1917 12.0375 28.2148 13.138 28.1917C13.5049 28.1917 13.6271 28.2888 13.5978 28.6545C13.5293 29.9689 13.3239 31.2463 12.4924 32.3571C11.5728 33.5466 10.2717 34.102 8.80433 34.389C8.40735 34.4478 8.00732 34.4864 7.60596 34.5047C7.28098 34.5406 6.95268 34.5406 6.62771 34.5047C5.67634 34.4797 4.73727 34.2947 3.85434 33.9585C3.03932 33.632 2.31064 33.139 1.72043 32.5149C1.13022 31.8908 0.693054 31.151 0.440217 30.3485C0.189266 29.6171 0.0412526 28.8577 0 28.0898C0 25.7201 0 23.3643 0.0342391 20.9992C0.0499031 19.6442 0.464928 18.3202 1.23261 17.1762C1.72539 16.4674 2.38323 15.8749 3.15566 15.444C3.92808 15.0132 4.79455 14.7555 5.68858 14.6908C7.27292 14.4798 8.88806 14.6699 10.3695 15.2416C11.1545 15.5439 11.8455 16.03 12.3777 16.6541C12.9098 17.2783 13.2657 18.0201 13.4119 18.81C13.5408 19.393 13.6047 19.9871 13.6027 20.5827C13.6027 20.8511 13.5293 20.9252 13.2505 20.9206C12.2723 20.9206 11.3429 20.9206 10.3842 20.9206C9.74835 20.9206 9.69944 20.8465 9.69455 20.2078C9.73133 19.8366 9.6782 19.4623 9.5392 19.1135C9.4002 18.7646 9.17899 18.4503 8.89238 18.1945C8.55493 17.9338 8.16039 17.7474 7.73737 17.649C7.31435 17.5505 6.87347 17.5424 6.44673 17.6252C4.8913 17.889 4.23586 18.6666 4.00108 20.18C3.89935 21.2061 3.86994 22.2374 3.91304 23.2671C3.91304 24.9426 3.91304 26.6227 3.95217 28.2981C3.95093 29.0525 4.1784 29.7914 4.6076 30.4271C4.83572 30.7892 5.16656 31.0835 5.56255 31.2766C5.95854 31.4696 6.40382 31.5538 6.84781 31.5194C7.01633 31.5711 7.19777 31.5711 7.36629 31.5194C7.92321 31.5526 8.47153 31.3769 8.89261 31.0305C9.3137 30.684 9.57367 30.1946 9.61629 29.6681C9.65542 29.4228 9.81194 29.1775 9.70922 28.9137C9.81683 28.6869 9.62607 28.4046 9.82661 28.1917Z" fill="white" fill-opacity="0.8"/>
<path fill-rule="evenodd" clip-rule="evenodd" d="M78.3536 26.3819C76.2259 26.3819 74.0982 26.3402 71.9705 26.405C71.91 26.5523 71.8947 26.7127 71.9265 26.8678C71.9265 29.2622 71.9265 31.6566 71.9265 34.051C71.9536 34.2063 71.9385 34.3656 71.8825 34.5138C70.6792 34.5138 69.471 34.5138 68.2678 34.5138C67.9792 34.5138 67.9009 34.449 67.9009 34.1667C67.9009 27.8784 67.9009 21.5915 67.9009 15.3063C67.9009 15.0425 67.9596 14.9499 68.258 14.9499C71.92 14.9499 75.5819 14.9499 79.2438 14.9499C79.5373 14.9499 79.6596 15.0193 79.6498 15.3202C79.6498 16.07 79.6498 16.8244 79.6498 17.5788C79.6498 17.8843 79.5422 17.9398 79.2487 17.9398C76.9939 17.9398 74.739 17.9398 72.4743 17.9398C72.3129 17.9398 72.1368 17.9398 71.9852 17.9398C71.9438 18.0034 71.9265 18.0785 71.9363 18.1527V23.1467C71.9257 23.2209 71.943 23.2962 71.9852 23.3596L75.771 23.3873C76.6319 23.3873 77.5025 23.3873 78.3683 23.3873C78.4558 23.8625 78.4739 24.3469 78.4221 24.8267C78.4658 25.3458 78.4428 25.868 78.3536 26.3819Z" fill="white" fill-opacity="0.8"/>
<path fill-rule="evenodd" clip-rule="evenodd" d="M115.293 17.9907C113.913 17.9907 112.534 17.9675 111.16 17.9907C110.851 17.9907 110.739 17.9259 110.754 17.6065C110.754 16.8521 110.754 16.1023 110.754 15.3433C110.754 15.0702 110.851 15.0008 111.116 15.0008C115.286 15.0008 119.455 15.0008 123.623 15.0008C123.931 15.0008 124.009 15.1026 123.999 15.3849C123.999 16.1394 123.999 16.8891 123.999 17.6436C123.999 17.9166 123.926 17.9953 123.642 17.9953C122.37 17.9953 121.094 17.9953 119.827 17.9953C119.338 17.9953 119.274 18.1434 119.274 18.56C119.274 23.7252 119.274 28.8904 119.274 34.0602C119.274 34.486 119.167 34.5971 118.731 34.5879C117.611 34.5508 116.491 34.5879 115.366 34.5879C115.31 34.4396 115.295 34.2803 115.322 34.125C115.322 28.9274 115.322 23.7344 115.322 18.5368C115.374 18.3565 115.364 18.1652 115.293 17.9907Z" fill="white" fill-opacity="0.8"/>
<path fill-rule="evenodd" clip-rule="evenodd" d="M30.1401 20.8235C30.0229 19.2925 29.3209 17.8541 28.1653 16.7768C27.0097 15.6995 25.4793 15.0568 23.8597 14.9687C21.1646 14.7558 18.7483 15.251 17.0119 17.4448C16.162 18.5155 15.6836 19.809 15.6423 21.1475C15.5543 23.3598 15.6423 25.2436 15.6179 27.4652C15.6179 29.7793 16.5326 32.0935 18.6749 33.4172C21.3113 35.0371 25.7526 34.8473 28.1592 32.6257C28.8233 31.9959 29.348 31.2469 29.7024 30.4228C30.0569 29.5987 30.2339 28.7159 30.2233 27.8262C30.3445 25.4895 30.3184 23.148 30.145 20.8143L30.1401 20.8235ZM25.3222 28.7472C23.5516 29.6729 21.7956 27.2615 23.307 26.6089C23.5227 26.5106 23.7706 26.4962 23.9974 26.5689C24.2242 26.6416 24.4119 26.7955 24.52 26.9977C24.6853 27.3528 24.9831 27.6379 25.3564 27.7984C25.4475 27.8458 25.5228 27.9162 25.5741 28.0017C25.6254 28.0872 25.6507 28.1845 25.6472 28.2828C25.6436 28.381 25.6114 28.4764 25.554 28.5584C25.4967 28.6404 25.4164 28.7057 25.3222 28.7472ZM27.4793 26.9514C27.3793 27.1521 27.2189 27.3204 27.0181 27.435C26.8174 27.5496 26.5853 27.6055 26.351 27.5956C26.1168 27.5857 25.8909 27.5105 25.7017 27.3794C25.5126 27.2483 25.3686 27.0672 25.288 26.8589C24.7157 25.637 23.5075 25.5768 22.2896 26.2063C19.4771 27.6642 16.6597 24.9103 18.1271 22.2305C20.6266 17.6716 28.0124 19.0138 28.2423 24.6558C28.2193 25.4734 27.955 26.2686 27.4793 26.9514Z" fill="white" fill-opacity="0.8"/>
<path fill-rule="evenodd" clip-rule="evenodd" d="M65.9445 20.7215C65.9102 20.4485 65.876 20.1661 65.8319 19.8931C65.6375 18.6632 65.0264 17.5263 64.0906 16.6532C63.4955 16.111 62.7927 15.6858 62.0228 15.4022C61.2529 15.1186 60.4313 14.9822 59.6053 15.0009C57.37 14.9732 55.1298 15.0009 52.8945 15.0009C52.5765 15.0009 52.5178 15.1027 52.5178 15.3758C52.5178 21.6457 52.5178 27.917 52.5178 34.19C52.5178 34.4815 52.601 34.5649 52.9043 34.5602C54.0831 34.5602 55.2716 34.5602 56.4456 34.5602C56.5055 34.4129 56.5224 34.253 56.4945 34.0974V28.0019C56.4945 27.4974 56.4945 27.502 56.9836 27.4928C57.9325 27.4928 58.8814 27.4928 59.8303 27.4928C60.7444 27.4611 61.6425 27.2566 62.4716 26.8911C64.6825 25.8636 65.7243 24.091 65.9298 21.7999C65.9705 21.4492 65.9705 21.0954 65.9298 20.7447L65.9445 20.7215ZM61.7184 22.8598C61.5683 23.3487 61.2467 23.7745 60.8066 24.0673C60.3665 24.3601 59.8341 24.5023 59.2972 24.4705C58.5048 24.4705 57.7075 24.4473 56.9102 24.4705C56.5287 24.4705 56.4504 24.3501 56.4602 24.0076C56.4847 23.082 56.4602 22.1147 56.4602 21.1751C56.4602 20.2356 56.4602 19.2544 56.4602 18.2963C56.4602 18.0279 56.5238 17.9353 56.8173 17.9445C57.5216 17.9445 58.226 17.9445 58.9303 17.9445C60.6961 17.9445 61.5521 18.6018 61.9042 20.2587C62.1136 21.1257 62.049 22.0319 61.7184 22.8645V22.8598Z" fill="white" fill-opacity="0.8"/>
</svg>
