<svg width="24" height="25" viewBox="0 0 24 25" fill="none" xmlns="http://www.w3.org/2000/svg">
<path d="M5.99902 5.47131C3.78992 5.47131 1.99902 7.26231 1.99902 9.47131V15.4713C1.99902 17.6803 3.78992 19.4713 5.99902 19.4713H17.999C20.2081 19.4713 21.999 17.6803 21.999 15.4713V9.47131C21.999 7.26231 20.2081 5.47131 17.999 5.47131H5.99902ZM10.7133 9.47131C10.8376 9.47131 10.9463 9.50631 11.0481 9.56531C11.106 9.59831 14.6689 11.7973 14.7981 11.9323C14.9278 12.0683 14.999 12.2633 14.999 12.4713C14.999 12.6033 14.9664 12.7153 14.9097 12.8233C14.8635 12.9103 14.8055 12.9953 14.7311 13.0573C14.6095 13.1583 11.0256 15.3923 10.9365 15.4243C10.8637 15.4503 10.7945 15.4713 10.7133 15.4713C10.5348 15.4713 10.3697 15.3973 10.2445 15.2833C10.093 15.1463 9.99903 14.9483 9.99903 14.7213C9.99903 14.5163 9.99903 10.4253 9.99903 10.2213C9.99903 9.80731 10.3188 9.47131 10.7133 9.47131Z" fill="white" fill-opacity="0.8"/>
</svg>
