<svg width="24" height="24" viewBox="0 0 24 24" fill="none" xmlns="http://www.w3.org/2000/svg">
<path d="M5.99902 4.88293C3.78992 4.88293 1.99902 6.67393 1.99902 8.88293V14.8829C1.99902 17.0919 3.78992 18.8829 5.99902 18.8829H17.999C20.2081 18.8829 21.999 17.0919 21.999 14.8829V8.88293C21.999 6.67393 20.2081 4.88293 17.999 4.88293H5.99902ZM10.7133 8.88293C10.8376 8.88293 10.9463 8.91793 11.0481 8.97693C11.106 9.00993 14.6689 11.2089 14.7981 11.3439C14.9278 11.4799 14.999 11.6749 14.999 11.8829C14.999 12.0149 14.9664 12.1269 14.9097 12.2349C14.8635 12.3219 14.8055 12.4069 14.7311 12.4689C14.6095 12.5699 11.0256 14.8039 10.9365 14.8359C10.8637 14.8619 10.7945 14.8829 10.7133 14.8829C10.5348 14.8829 10.3697 14.8089 10.2445 14.6949C10.093 14.5579 9.99903 14.3599 9.99903 14.1329C9.99903 13.9279 9.99903 9.83693 9.99903 9.63293C9.99903 9.21893 10.3188 8.88293 10.7133 8.88293Z" fill="white" fill-opacity="0.8"/>
</svg>
