<svg width="48" height="48" viewBox="0 0 48 48" fill="none" xmlns="http://www.w3.org/2000/svg">
<path d="M11.6544 12.0595C11.1544 12.1595 10.6484 12.4155 10.3424 12.8735C9.73043 13.7875 9.9884 15.0755 10.9064 15.6855L22.9064 23.6855C23.5764 24.1315 24.4845 24.1315 25.1545 23.6855L37.1545 15.6855C38.0725 15.0755 38.3305 13.7875 37.7185 12.8735C37.1065 11.9575 35.8225 11.6995 34.9065 12.3095L24.0305 19.5595L13.1545 12.3095C12.6965 12.0055 12.1565 11.9595 11.6544 12.0595ZM11.6544 24.0595C11.1544 24.1595 10.6484 24.4155 10.3424 24.8735C9.73043 25.7875 9.9884 27.0755 10.9064 27.6855L22.9064 35.6855C23.5764 36.1315 24.4845 36.1315 25.1545 35.6855L37.1545 27.6855C38.0725 27.0755 38.3305 25.7875 37.7185 24.8735C37.1065 23.9575 35.8225 23.6995 34.9065 24.3095L24.0305 31.5595L13.1545 24.3095C12.6965 24.0055 12.1565 23.9595 11.6544 24.0595Z" fill="white" fill-opacity="0.8"/>
</svg>
